<?xml version="1.0" encoding="utf-8"?>
<!-- Generator: Adobe Illustrator 21.1.0, SVG Export Plug-In . SVG Version: 6.00 Build 0)  -->
<svg version="1.1" id="Capa_1" xmlns="http://www.w3.org/2000/svg" xmlns:xlink="http://www.w3.org/1999/xlink" x="0px" y="0px"
	 viewBox="0 0 57 57" style="enable-background:new 0 0 57 57;" xml:space="preserve">
<style type="text/css">
	.st0{fill:#FFFFFF;}
</style>
<path class="st0" d="M49,48.1L38.6,37.2c2.7-3.2,4.2-7.2,4.2-11.4c0-9.8-8-17.7-17.7-17.7S7.3,16,7.3,25.8s8,17.7,17.7,17.7
	c3.7,0,7.1-1.1,10.2-3.2l10.5,10.9c0.4,0.4,1,0.7,1.7,0.7c0.6,0,1.2-0.3,1.6-0.6C49.9,50.4,49.9,49,49,48.1z M25,12.7
	c7.2,0,13.1,5.9,13.1,13.1S32.3,38.9,25,38.9S12,33.1,12,25.8S17.8,12.7,25,12.7z"/>
</svg>
